<svg xmlns="http://www.w3.org/2000/svg" viewBox="0 0 48 48" fill="none" stroke="#1c7a48" stroke-width="2.5" stroke-linecap="round" stroke-linejoin="round">
  <path d="M24 6c6 0 9 10 9 18s-4 18-9 18-9-10-9-18 3-18 9-18z" fill="#e8c14d" stroke="#c98a1e"/>
  <path d="M24 10v28M17 16c4 2 10 2 14 0M16 24c4 2 12 2 16 0M17 32c4 2 10 2 14 0" stroke="#c98a1e" stroke-width="2"/>
  <path d="M12 30c-2 6 0 10 4 12 1-4 0-9-4-12z" fill="#4caf7d"/>
  <path d="M36 30c2 6 0 10-4 12-1-4 0-9 4-12z" fill="#1c7a48"/>
</svg>
