<svg xmlns="http://www.w3.org/2000/svg" viewBox="0 0 48 48" fill="none" stroke="#1c7a48" stroke-width="2.5" stroke-linecap="round" stroke-linejoin="round">
  <path d="M24 44V14"/>
  <path d="M24 20c-6 0-10-4-10-10 6 0 10 4 10 10z" fill="#1c7a48" stroke="none"/>
  <path d="M24 20c6 0 10-4 10-10-6 0-10 4-10 10z" fill="#4caf7d" stroke="none"/>
  <path d="M24 30c-5 0-9-3.5-9-8.5 5 0 9 3.5 9 8.5z" fill="#4caf7d" stroke="none"/>
  <path d="M24 30c5 0 9-3.5 9-8.5-5 0-9 3.5-9 8.5z" fill="#1c7a48" stroke="none"/>
  <path d="M14 44c0-5 4.5-8 10-8s10 3 10 8" />
</svg>
