<svg xmlns="http://www.w3.org/2000/svg" viewBox="0 0 48 48" fill="none" stroke="#1c7a48" stroke-width="2.5" stroke-linecap="round" stroke-linejoin="round">
  <path d="M16 44V12M26 44V16" stroke="#8fbf5a" stroke-width="5"/>
  <path d="M13 20h6M13 28h6M13 36h6M23 24h6M23 32h6M23 40h6" stroke="#1c7a48" stroke-width="2"/>
  <path d="M16 12C12 8 12 4 16 2c2 3 2 7 0 10z" fill="#4caf7d"/>
  <path d="M16 12c4-4 8-4 10 0-4 1-7 1-10 0z" fill="#1c7a48"/>
  <path d="M26 16c0-5 3-8 7-8-1 4-3 7-7 8z" fill="#4caf7d"/>
</svg>
